<svg width="36" height="36" viewBox="0 0 36 36" fill="none" xmlns="http://www.w3.org/2000/svg">
<path fill-rule="evenodd" clip-rule="evenodd" d="M9.88347 1.93511C9.78452 0.949562 8.95505 0.199219 7.96454 0.199219H1.97935C0.914232 0.199219 0.0507812 1.06267 0.0507812 2.12779C0.0507812 3.19291 0.914232 4.05637 1.97935 4.05637H6.21993L6.86693 10.5001C6.86669 10.5452 6.86883 10.5904 6.87338 10.6357L8.11345 22.9652C8.11561 22.9866 8.11831 23.008 8.12153 23.0293C8.2546 23.9067 8.7003 24.7066 9.37651 25.2813C10.0507 25.8543 10.9087 26.1652 11.7933 26.1572H26.8397C27.6294 26.1904 28.4093 25.9684 29.0634 25.5236C29.7279 25.0718 30.2262 24.4148 30.4824 23.6532L30.4836 23.6492L33.6678 14.0729L33.6686 14.0698C33.8512 13.5165 33.8995 12.9276 33.81 12.3519C33.7208 11.7781 33.4971 11.2337 33.1572 10.763C32.8013 10.2637 32.3263 9.86127 31.7753 9.59217C31.2319 9.32682 30.6318 9.19954 30.028 9.22132H10.6151L9.88347 1.93511ZM29.3779 32.9707C29.3779 31.298 28.022 29.9421 26.3493 29.9421C24.6765 29.9421 23.3204 31.298 23.3204 32.9707C23.3204 34.6434 24.6765 35.9996 26.3493 35.9996C28.022 35.9996 29.3779 34.6434 29.3779 32.9707ZM13.1167 29.9421C14.7894 29.9421 16.1454 31.298 16.1454 32.9707C16.1454 34.6434 14.7894 35.9996 13.1167 35.9996C11.4439 35.9996 10.0879 34.6434 10.0879 32.9707C10.0879 31.298 11.4439 29.9421 13.1167 29.9421Z" fill="#CFB79D"/>
</svg>
