<svg width="36" height="36" viewBox="0 0 36 36" fill="none" xmlns="http://www.w3.org/2000/svg">
<g clip-path="url(#clip0_518_202)">
<path fill-rule="evenodd" clip-rule="evenodd" d="M12.1223 3.81828C12.1223 1.8028 13.7562 0.168945 15.7716 0.168945H32.3168C34.3323 0.168945 35.9662 1.8028 35.9662 3.81828V32.1814C35.9662 34.1969 34.3323 35.8308 32.3168 35.8308H19.7113C19.9112 35.2818 20.0203 34.6894 20.0203 34.0712V29.3966C20.0203 29.1834 20.0114 28.9713 19.994 28.7604C20.4422 28.8412 20.8995 28.8826 21.3612 28.8826H24.8876C27.7278 28.8826 30.0303 26.5798 30.0303 23.7396C30.0303 21.3999 28.4679 19.4252 26.3297 18.8017C27.7767 17.4502 28.6816 15.5252 28.6816 13.3888C28.6816 9.29917 25.3661 5.98386 21.2765 5.98386C17.9584 5.98386 15.1499 8.16628 14.2084 11.174C13.5456 10.8927 12.8436 10.7043 12.1223 10.617V3.81828ZM17.0858 13.3888C17.0858 11.0744 18.962 9.19814 21.2765 9.19814C23.5909 9.19814 25.4672 11.0744 25.4672 13.3888C25.4672 15.7033 23.5909 17.5795 21.2765 17.5795C18.962 17.5795 17.0858 15.7033 17.0858 13.3888ZM17.297 17.5567L17.3033 17.563L21.1359 21.3956C21.1961 21.4558 21.2779 21.4897 21.3632 21.4897L24.8896 21.4896C26.1323 21.4896 27.1395 22.497 27.1395 23.7396C27.1395 24.9822 26.1323 25.9897 24.8896 25.9897H21.3632C20.0845 25.9897 18.8581 25.4817 17.9539 24.5775L15.706 22.3297L13.8818 24.1539L15.7152 25.9874C16.6194 26.8915 17.1274 28.1178 17.1274 29.3966V33.4278C17.1274 34.6703 16.12 35.6778 14.8774 35.6778C13.6347 35.6778 12.6274 34.6703 12.6274 33.4278V29.3966C12.6274 29.3115 12.5935 29.2297 12.5332 29.1693L10.6683 27.3045C9.83452 27.9373 8.81179 28.2855 7.75315 28.2855H2.57129C1.32865 28.2855 0.321289 27.278 0.321289 26.0355C0.321289 24.7928 1.32865 23.7854 2.57129 23.7854H7.75315C7.8384 23.7854 7.92014 23.7516 7.98044 23.6913L12.524 19.1477L11.4245 18.0481C11.3642 17.9879 11.2824 17.954 11.1972 17.954L6.52221 17.9539C5.27959 17.9539 4.27224 16.9466 4.27226 15.7039C4.27226 14.4613 5.27965 13.4539 6.52229 13.4539L11.1972 13.454C12.4759 13.454 13.7023 13.962 14.6064 14.8661L17.2907 17.5504L17.297 17.5567Z" fill="#A70E13"/>
</g>
<defs>
<clipPath id="clip0_518_202">
<rect width="36" height="36" fill="white"/>
</clipPath>
</defs>
</svg>
