<svg width="24" height="24" viewBox="0 0 24 24" fill="none" xmlns="http://www.w3.org/2000/svg">
<g clip-path="url(#clip0_556_743)">
<path d="M18.3686 -0.000976562C18.0261 -0.000976562 17.687 0.0674628 17.3712 0.200323C17.0575 0.332357 16.7731 0.525368 16.5345 0.768142L2.41255 14.8215C2.3077 14.9259 2.23164 15.0556 2.19177 15.198L0.0317655 22.9123C-0.0517289 23.2104 0.032107 23.5305 0.251071 23.7496C0.470037 23.9685 0.79008 24.0523 1.08827 23.9688L8.80257 21.8088C8.94499 21.7689 9.07467 21.6928 9.17901 21.588L23.2322 7.46624L23.2346 7.46393C23.4744 7.22535 23.6649 6.94177 23.795 6.62943C23.9256 6.31609 23.9928 5.97999 23.9928 5.64053C23.9928 5.30106 23.9256 4.96496 23.795 4.65161C23.6649 4.33926 23.4744 4.05567 23.2346 3.81711L23.2322 3.81481L20.2044 0.769934C19.9656 0.526316 19.6805 0.332681 19.3659 0.200323C19.0502 0.0674628 18.7111 -0.000976562 18.3686 -0.000976562Z" fill="#A89173"/>
</g>
<defs>
<clipPath id="clip0_556_743">
<rect width="24" height="24" fill="white"/>
</clipPath>
</defs>
</svg>
