<svg width="36" height="36" viewBox="0 0 36 36" fill="none" xmlns="http://www.w3.org/2000/svg">
<path fill-rule="evenodd" clip-rule="evenodd" d="M3.70102 1.12973C4.42436 0.406376 5.40547 0 6.42843 0H21.857C22.198 0 22.525 0.135459 22.7661 0.376578L33.052 10.6623C33.2929 10.9034 33.4284 11.2304 33.4284 11.5714V32.1429C33.4284 33.1658 33.0221 34.147 32.2988 34.8704C31.5755 35.5937 30.5942 36 29.5713 36H6.42843C5.40544 36 4.42436 35.5937 3.70102 34.8704C2.97768 34.147 2.57129 33.1658 2.57129 32.1429V3.85714C2.57129 2.83418 2.97768 1.85308 3.70102 1.12973ZM12.7433 10.1604C14.1981 10.1604 15.3774 8.9811 15.3774 7.52637C15.3774 6.07166 14.1981 4.89237 12.7433 4.89237C11.2886 4.89237 10.1094 6.07166 10.1094 7.52637C10.1094 8.9811 11.2886 10.1604 12.7433 10.1604ZM7.39475 21.857C7.39344 20.9694 8.11189 20.2499 8.9995 20.2499H26.9996C27.887 20.2499 28.6078 20.9694 28.6091 21.857C28.6103 22.7446 27.8919 23.4642 27.0042 23.4642H9.00431C8.11673 23.4642 7.39609 22.7446 7.39475 21.857ZM7.39475 29.5714C7.39344 28.6838 8.11189 27.9643 8.9995 27.9643H19.2852C20.1728 27.9643 20.8934 28.6838 20.8948 29.5714C20.8961 30.4588 20.1777 31.1786 19.29 31.1786H9.00431C8.11673 31.1786 7.39609 30.4588 7.39475 29.5714ZM12.7418 11.9161C10.9422 11.9161 9.30074 12.5928 8.05792 13.7057C7.3202 14.3662 7.89631 15.4281 8.88654 15.4281H16.597C17.5872 15.4281 18.1633 14.3662 17.4256 13.7057C16.1828 12.5928 14.5413 11.9161 12.7418 11.9161Z" fill="#A89173"/>
</svg>
