<svg width="36" height="36" viewBox="0 0 36 36" fill="none" xmlns="http://www.w3.org/2000/svg">
<path fill-rule="evenodd" clip-rule="evenodd" d="M1.317 1.13143C2.1601 0.407867 3.30393 0.000900268 4.497 0L21.258 0C22.4511 0.000900268 23.5949 0.407867 24.438 1.13143L34.68 9.91029C35.5242 10.6329 35.999 11.6134 36 12.636V32.1429C36 33.1658 35.5259 34.1469 34.682 34.8703C33.8381 35.5936 32.6935 36 31.5 36H4.5C3.30653 36 2.16193 35.5936 1.31802 34.8703C0.474106 34.1469 0 33.1658 0 32.1429V3.85714C0 2.83371 0.471 1.85143 1.317 1.13143ZM15.333 11.6409C15.5739 11.788 15.7786 11.9743 15.9354 12.1893C16.0922 12.4043 16.198 12.6436 16.2468 12.8937C16.2955 13.1438 16.2863 13.3996 16.2196 13.6466C16.1529 13.8936 16.03 14.1269 15.858 14.3331L11.667 19.3629C11.477 19.5904 11.2314 19.7798 10.9474 19.9179C10.6634 20.056 10.3477 20.1394 10.0223 20.1624C9.69688 20.1854 9.36953 20.1474 9.06296 20.0511C8.7564 19.9548 8.47797 19.8024 8.247 19.6046L5.733 17.4497C5.33556 17.0841 5.11919 16.6006 5.12948 16.1009C5.13976 15.6013 5.3759 15.1246 5.78813 14.7713C6.20037 14.4179 6.75653 14.2155 7.33943 14.2067C7.92234 14.1979 8.48647 14.3833 8.913 14.724L9.549 15.2666L12.195 12.0934C12.5415 11.6771 13.0668 11.3958 13.6553 11.3115C14.2438 11.2271 14.8472 11.3439 15.333 11.6409ZM18.183 16.3903C18.183 15.8788 18.4201 15.3883 18.842 15.0266C19.264 14.6649 19.8363 14.4617 20.433 14.4617H27.933C28.5297 14.4617 29.102 14.6649 29.524 15.0266C29.9459 15.3883 30.183 15.8788 30.183 16.3903C30.183 16.9018 29.9459 17.3923 29.524 17.754C29.102 18.1157 28.5297 18.3189 27.933 18.3189H20.433C19.8363 18.3189 19.264 18.1157 18.842 17.754C18.4201 17.3923 18.183 16.9018 18.183 16.3903ZM18.183 26.5963C18.183 26.0848 18.4201 25.5943 18.842 25.2326C19.264 24.8709 19.8363 24.6677 20.433 24.6677H27.933C28.5297 24.6677 29.102 24.8709 29.524 25.2326C29.9459 25.5943 30.183 26.0848 30.183 26.5963C30.183 27.1078 29.9459 27.5983 29.524 27.96C29.102 28.3217 28.5297 28.5249 27.933 28.5249H20.433C19.8363 28.5249 19.264 28.3217 18.842 27.96C18.4201 27.5983 18.183 27.1078 18.183 26.5963ZM15.858 24.6986C16.038 24.493 16.1682 24.2586 16.2411 24.0093C16.3139 23.76 16.3278 23.5007 16.2821 23.2466C16.2363 22.9926 16.1317 22.749 15.9746 22.5301C15.8174 22.3112 15.6107 22.1214 15.3668 21.972C15.1228 21.8225 14.8464 21.7163 14.5539 21.6597C14.2614 21.6031 13.9587 21.5972 13.6634 21.6423C13.3682 21.6875 13.0865 21.7827 12.8348 21.9225C12.5832 22.0623 12.3667 22.2438 12.198 22.4563L9.549 25.632L8.913 25.0869C8.48647 24.7462 7.92234 24.5607 7.33943 24.5695C6.75653 24.5784 6.20037 24.7808 5.78813 25.1341C5.3759 25.4875 5.13976 25.9642 5.12948 26.4638C5.11919 26.9634 5.33556 27.447 5.733 27.8126L8.247 29.9674C8.47797 30.1653 8.7564 30.3176 9.06296 30.4139C9.36953 30.5103 9.69688 30.5483 10.0223 30.5253C10.3477 30.5023 10.6634 30.4188 10.9474 30.2808C11.2314 30.1427 11.477 29.9533 11.667 29.7257L15.858 24.6986Z" fill="#A89173"/>
</svg>
