<svg width="36" height="36" viewBox="0 0 36 36" fill="none" xmlns="http://www.w3.org/2000/svg">
<g clip-path="url(#clip0_518_216)">
<path fill-rule="evenodd" clip-rule="evenodd" d="M36 18C36 22.8262 34.1005 27.2088 31.0086 30.4411C27.7429 33.8547 23.1472 35.9851 18.0537 36H18H17.9463C12.8528 35.9851 8.25701 33.8547 4.99148 30.4411C1.89941 27.2088 0 22.8262 0 18C0 8.05888 8.05888 0 18 0C27.9411 0 36 8.05888 36 18ZM28.9101 27C26.3163 23.8589 22.3918 21.8571 18 21.8571C13.6082 21.8571 9.68385 23.8589 7.08981 27C9.68385 30.141 13.6082 32.1429 18 32.1429C22.3918 32.1429 26.3163 30.141 28.9101 27ZM18.0003 19.2856C21.5507 19.2856 24.4289 16.4075 24.4289 12.8571C24.4289 9.30667 21.5507 6.42849 18.0003 6.42849C14.4499 6.42849 11.5717 9.30667 11.5717 12.8571C11.5717 16.4075 14.4499 19.2856 18.0003 19.2856Z" fill="#D2A752"/>
</g>
<defs>
<clipPath id="clip0_518_216">
<rect width="36" height="36" fill="white"/>
</clipPath>
</defs>
</svg>
