<svg width="27" height="27" viewBox="0 0 27 27" fill="none" xmlns="http://www.w3.org/2000/svg">
<g clip-path="url(#clip0_518_120)">
<path fill-rule="evenodd" clip-rule="evenodd" d="M3.29228 0.564865C2.53912 -0.188288 1.31802 -0.188288 0.564865 0.564865C-0.188288 1.31802 -0.188288 2.53912 0.564865 3.29228L10.7726 13.5L0.564865 23.7077C-0.188288 24.4608 -0.188288 25.682 0.564865 26.4351C1.31802 27.1882 2.53912 27.1882 3.29228 26.4351L13.5 16.2274L23.7077 26.4351C24.4608 27.1882 25.682 27.1882 26.4351 26.4351C27.1882 25.682 27.1882 24.4608 26.4351 23.7077L16.2274 13.5L26.4351 3.29228C27.1882 2.53912 27.1882 1.31802 26.4351 0.564865C25.682 -0.188288 24.4608 -0.188288 23.7077 0.564865L13.5 10.7726L3.29228 0.564865Z" fill="#A89173"/>
</g>
<defs>
<clipPath id="clip0_518_120">
<rect width="27" height="27" fill="white"/>
</clipPath>
</defs>
</svg>
